<?xml version="1.0" encoding="UTF-8" standalone="no"?>
<!DOCTYPE svg PUBLIC "-//W3C//DTD SVG 1.1//EN"
 "http://www.w3.org/Graphics/SVG/1.1/DTD/svg11.dtd">
<!-- Generated by graphviz version 2.40.1 (20161225.0304)
 -->
<!-- Title: %3 Pages: 1 -->
<svg width="551pt" height="864pt"
 viewBox="0.00 0.00 550.56 864.00" xmlns="http://www.w3.org/2000/svg" xmlns:xlink="http://www.w3.org/1999/xlink">
<g id="graph0" class="graph" transform="scale(.6307 .6307) rotate(0) translate(4 1366)">
<title>%3</title>
<polygon fill="#ffffff" stroke="transparent" points="-4,4 -4,-1366 869,-1366 869,4 -4,4"/>
<!-- 140459065689920 -->
<g id="node1" class="node">
<title>140459065689920</title>
<polygon fill="#caff70" stroke="#000000" points="71.5,-31 17.5,-31 17.5,0 71.5,0 71.5,-31"/>
<text text-anchor="middle" x="44.5" y="-7" font-family="monospace" font-size="10.00" fill="#000000"> (1)</text>
</g>
<!-- 140458852494400 -->
<g id="node2" class="node">
<title>140458852494400</title>
<polygon fill="#d3d3d3" stroke="#000000" points="89,-108 0,-108 0,-67 89,-67 89,-108"/>
<text text-anchor="middle" x="44.5" y="-96" font-family="monospace" font-size="10.00" fill="#000000">AddBackward0</text>
<text text-anchor="middle" x="44.5" y="-85" font-family="monospace" font-size="10.00" fill="#000000">&#45;&#45;&#45;&#45;&#45;&#45;&#45;&#45;&#45;&#45;&#45;&#45;</text>
<text text-anchor="middle" x="44.5" y="-74" font-family="monospace" font-size="10.00" fill="#000000">alpha: 1</text>
</g>
<!-- 140458852494400&#45;&gt;140459065689920 -->
<g id="edge36" class="edge">
<title>140458852494400&#45;&gt;140459065689920</title>
<path fill="none" stroke="#000000" d="M44.5,-66.6746C44.5,-58.8199 44.5,-49.7855 44.5,-41.5146"/>
<polygon fill="#000000" stroke="#000000" points="48.0001,-41.245 44.5,-31.2451 41.0001,-41.2451 48.0001,-41.245"/>
</g>
<!-- 140458852494496 -->
<g id="node3" class="node">
<title>140458852494496</title>
<polygon fill="#d3d3d3" stroke="#000000" points="89,-185 0,-185 0,-144 89,-144 89,-185"/>
<text text-anchor="middle" x="44.5" y="-173" font-family="monospace" font-size="10.00" fill="#000000">AddBackward0</text>
<text text-anchor="middle" x="44.5" y="-162" font-family="monospace" font-size="10.00" fill="#000000">&#45;&#45;&#45;&#45;&#45;&#45;&#45;&#45;&#45;&#45;&#45;&#45;</text>
<text text-anchor="middle" x="44.5" y="-151" font-family="monospace" font-size="10.00" fill="#000000">alpha: 1</text>
</g>
<!-- 140458852494496&#45;&gt;140458852494400 -->
<g id="edge1" class="edge">
<title>140458852494496&#45;&gt;140458852494400</title>
<path fill="none" stroke="#000000" d="M44.5,-143.8654C44.5,-136.0111 44.5,-126.8822 44.5,-118.2879"/>
<polygon fill="#000000" stroke="#000000" points="48.0001,-118.1915 44.5,-108.1915 41.0001,-118.1916 48.0001,-118.1915"/>
</g>
<!-- 140458852494160 -->
<g id="node4" class="node">
<title>140458852494160</title>
<polygon fill="#d3d3d3" stroke="#000000" points="89,-262 0,-262 0,-221 89,-221 89,-262"/>
<text text-anchor="middle" x="44.5" y="-250" font-family="monospace" font-size="10.00" fill="#000000">AddBackward0</text>
<text text-anchor="middle" x="44.5" y="-239" font-family="monospace" font-size="10.00" fill="#000000">&#45;&#45;&#45;&#45;&#45;&#45;&#45;&#45;&#45;&#45;&#45;&#45;</text>
<text text-anchor="middle" x="44.5" y="-228" font-family="monospace" font-size="10.00" fill="#000000">alpha: 1</text>
</g>
<!-- 140458852494160&#45;&gt;140458852494496 -->
<g id="edge2" class="edge">
<title>140458852494160&#45;&gt;140458852494496</title>
<path fill="none" stroke="#000000" d="M44.5,-220.8654C44.5,-213.0111 44.5,-203.8822 44.5,-195.2879"/>
<polygon fill="#000000" stroke="#000000" points="48.0001,-195.1915 44.5,-185.1915 41.0001,-195.1916 48.0001,-195.1915"/>
</g>
<!-- 140458852494544 -->
<g id="node5" class="node">
<title>140458852494544</title>
<polygon fill="#d3d3d3" stroke="#000000" points="161,-350 18,-350 18,-298 161,-298 161,-350"/>
<text text-anchor="middle" x="89.5" y="-338" font-family="monospace" font-size="10.00" fill="#000000">MulBackward0</text>
<text text-anchor="middle" x="89.5" y="-327" font-family="monospace" font-size="10.00" fill="#000000">&#45;&#45;&#45;&#45;&#45;&#45;&#45;&#45;&#45;&#45;&#45;&#45;&#45;&#45;&#45;&#45;&#45;&#45;&#45;&#45;&#45;</text>
<text text-anchor="middle" x="89.5" y="-316" font-family="monospace" font-size="10.00" fill="#000000">other: [saved tensor]</text>
<text text-anchor="middle" x="89.5" y="-305" font-family="monospace" font-size="10.00" fill="#000000">self : &#160;&#160;&#160;&#160;&#160;&#160;&#160;&#160;&#160;&#160;None</text>
</g>
<!-- 140458852494544&#45;&gt;140458852494160 -->
<g id="edge3" class="edge">
<title>140458852494544&#45;&gt;140458852494160</title>
<path fill="none" stroke="#000000" d="M75.2617,-297.8965C70.5987,-289.3476 65.3859,-279.7908 60.5956,-271.0086"/>
<polygon fill="#000000" stroke="#000000" points="63.6585,-269.3147 55.7973,-262.2117 57.5133,-272.6667 63.6585,-269.3147"/>
</g>
<!-- 140459055415872 -->
<g id="node6" class="node">
<title>140459055415872</title>
<polygon fill="#ffa500" stroke="#000000" points="161.5,-256.5 107.5,-256.5 107.5,-226.5 161.5,-226.5 161.5,-256.5"/>
<text text-anchor="middle" x="134.5" y="-244.5" font-family="monospace" font-size="10.00" fill="#000000">other</text>
<text text-anchor="middle" x="134.5" y="-233.5" font-family="monospace" font-size="10.00" fill="#000000"> ()</text>
</g>
<!-- 140458852494544&#45;&gt;140459055415872 -->
<g id="edge4" class="edge">
<title>140458852494544&#45;&gt;140459055415872</title>
<path fill="none" stroke="#000000" d="M103.7383,-297.8965C111.1541,-284.3009 119.9603,-268.1562 126.2463,-256.6318"/>
</g>
<!-- 140458852494640 -->
<g id="node7" class="node">
<title>140458852494640</title>
<polygon fill="#d3d3d3" stroke="#000000" points="310,-449 143,-449 143,-386 310,-386 310,-449"/>
<text text-anchor="middle" x="226.5" y="-437" font-family="monospace" font-size="10.00" fill="#000000">MseLossBackward</text>
<text text-anchor="middle" x="226.5" y="-426" font-family="monospace" font-size="10.00" fill="#000000">&#45;&#45;&#45;&#45;&#45;&#45;&#45;&#45;&#45;&#45;&#45;&#45;&#45;&#45;&#45;&#45;&#45;&#45;&#45;&#45;&#45;&#45;&#45;&#45;&#45;</text>
<text text-anchor="middle" x="226.5" y="-415" font-family="monospace" font-size="10.00" fill="#000000">reduction: &#160;&#160;&#160;&#160;&#160;&#160;&#160;&#160;&#160;&#160;&#160;&#160;&#160;1</text>
<text text-anchor="middle" x="226.5" y="-404" font-family="monospace" font-size="10.00" fill="#000000">self &#160;&#160;&#160;&#160;: [saved tensor]</text>
<text text-anchor="middle" x="226.5" y="-393" font-family="monospace" font-size="10.00" fill="#000000">target &#160;&#160;: [saved tensor]</text>
</g>
<!-- 140458852494640&#45;&gt;140458852494544 -->
<g id="edge5" class="edge">
<title>140458852494640&#45;&gt;140458852494544</title>
<path fill="none" stroke="#000000" d="M180.118,-385.8452C165.9755,-376.1931 150.4238,-365.5794 136.2566,-355.9105"/>
<polygon fill="#000000" stroke="#000000" points="137.8721,-352.7757 127.6394,-350.0294 133.9261,-358.5575 137.8721,-352.7757"/>
</g>
<!-- 140459112979712 -->
<g id="node8" class="node">
<title>140459112979712</title>
<polygon fill="#ffa500" stroke="#000000" points="274,-339 179,-339 179,-309 274,-309 274,-339"/>
<text text-anchor="middle" x="226.5" y="-327" font-family="monospace" font-size="10.00" fill="#000000">self</text>
<text text-anchor="middle" x="226.5" y="-316" font-family="monospace" font-size="10.00" fill="#000000"> (4, 16, 512)</text>
</g>
<!-- 140458852494640&#45;&gt;140459112979712 -->
<g id="edge6" class="edge">
<title>140458852494640&#45;&gt;140459112979712</title>
<path fill="none" stroke="#000000" d="M226.5,-385.8452C226.5,-370.0575 226.5,-351.697 226.5,-339.1068"/>
</g>
<!-- 140459055417216 -->
<g id="node9" class="node">
<title>140459055417216</title>
<polygon fill="#ffa500" stroke="#000000" points="387,-339 292,-339 292,-309 387,-309 387,-339"/>
<text text-anchor="middle" x="339.5" y="-327" font-family="monospace" font-size="10.00" fill="#000000">target</text>
<text text-anchor="middle" x="339.5" y="-316" font-family="monospace" font-size="10.00" fill="#000000"> (4, 16, 512)</text>
</g>
<!-- 140458852494640&#45;&gt;140459055417216 -->
<g id="edge7" class="edge">
<title>140458852494640&#45;&gt;140459055417216</title>
<path fill="none" stroke="#000000" d="M264.7566,-385.8452C283.8369,-370.0575 306.0266,-351.697 321.2426,-339.1068"/>
</g>
<!-- 140458852494736 -->
<g id="node10" class="node">
<title>140458852494736</title>
<polygon fill="#d3d3d3" stroke="#000000" points="298,-526 155,-526 155,-485 298,-485 298,-526"/>
<text text-anchor="middle" x="226.5" y="-514" font-family="monospace" font-size="10.00" fill="#000000">ViewBackward</text>
<text text-anchor="middle" x="226.5" y="-503" font-family="monospace" font-size="10.00" fill="#000000">&#45;&#45;&#45;&#45;&#45;&#45;&#45;&#45;&#45;&#45;&#45;&#45;&#45;&#45;&#45;&#45;&#45;&#45;&#45;&#45;&#45;</text>
<text text-anchor="middle" x="226.5" y="-492" font-family="monospace" font-size="10.00" fill="#000000">self_sizes: (4, 8192)</text>
</g>
<!-- 140458852494736&#45;&gt;140458852494640 -->
<g id="edge8" class="edge">
<title>140458852494736&#45;&gt;140458852494640</title>
<path fill="none" stroke="#000000" d="M226.5,-484.6452C226.5,-477.0468 226.5,-468.1609 226.5,-459.3874"/>
<polygon fill="#000000" stroke="#000000" points="230.0001,-459.2234 226.5,-449.2234 223.0001,-459.2234 230.0001,-459.2234"/>
</g>
<!-- 140458852494832 -->
<g id="node11" class="node">
<title>140458852494832</title>
<polygon fill="#d3d3d3" stroke="#000000" points="447,-680 262,-680 262,-562 447,-562 447,-680"/>
<text text-anchor="middle" x="354.5" y="-668" font-family="monospace" font-size="10.00" fill="#000000">AddmmBackward</text>
<text text-anchor="middle" x="354.5" y="-657" font-family="monospace" font-size="10.00" fill="#000000">&#45;&#45;&#45;&#45;&#45;&#45;&#45;&#45;&#45;&#45;&#45;&#45;&#45;&#45;&#45;&#45;&#45;&#45;&#45;&#45;&#45;&#45;&#45;&#45;&#45;&#45;&#45;&#45;</text>
<text text-anchor="middle" x="354.5" y="-646" font-family="monospace" font-size="10.00" fill="#000000">alpha &#160;&#160;&#160;&#160;&#160;&#160;: &#160;&#160;&#160;&#160;&#160;&#160;&#160;&#160;&#160;&#160;&#160;&#160;&#160;1</text>
<text text-anchor="middle" x="354.5" y="-635" font-family="monospace" font-size="10.00" fill="#000000">beta &#160;&#160;&#160;&#160;&#160;&#160;&#160;: &#160;&#160;&#160;&#160;&#160;&#160;&#160;&#160;&#160;&#160;&#160;&#160;&#160;1</text>
<text text-anchor="middle" x="354.5" y="-624" font-family="monospace" font-size="10.00" fill="#000000">mat1 &#160;&#160;&#160;&#160;&#160;&#160;&#160;: [saved tensor]</text>
<text text-anchor="middle" x="354.5" y="-613" font-family="monospace" font-size="10.00" fill="#000000">mat1_sizes &#160;: &#160;&#160;&#160;&#160;&#160;(4, 8192)</text>
<text text-anchor="middle" x="354.5" y="-602" font-family="monospace" font-size="10.00" fill="#000000">mat1_strides: &#160;&#160;&#160;&#160;&#160;(8192, 1)</text>
<text text-anchor="middle" x="354.5" y="-591" font-family="monospace" font-size="10.00" fill="#000000">mat2 &#160;&#160;&#160;&#160;&#160;&#160;&#160;: [saved tensor]</text>
<text text-anchor="middle" x="354.5" y="-580" font-family="monospace" font-size="10.00" fill="#000000">mat2_sizes &#160;: &#160;&#160;(8192, 8192)</text>
<text text-anchor="middle" x="354.5" y="-569" font-family="monospace" font-size="10.00" fill="#000000">mat2_strides: &#160;&#160;&#160;&#160;&#160;(1, 8192)</text>
</g>
<!-- 140458852494832&#45;&gt;140458852494736 -->
<g id="edge9" class="edge">
<title>140458852494832&#45;&gt;140458852494736</title>
<path fill="none" stroke="#000000" d="M289.0001,-561.8966C277.7402,-551.7363 266.5423,-541.6319 256.8014,-532.8423"/>
<polygon fill="#000000" stroke="#000000" points="259.0975,-530.1999 249.3285,-526.0991 254.408,-535.3969 259.0975,-530.1999"/>
</g>
<!-- 140459055416896 -->
<g id="node12" class="node">
<title>140459055416896</title>
<polygon fill="#ffa500" stroke="#000000" points="393,-520.5 316,-520.5 316,-490.5 393,-490.5 393,-520.5"/>
<text text-anchor="middle" x="354.5" y="-508.5" font-family="monospace" font-size="10.00" fill="#000000">mat1</text>
<text text-anchor="middle" x="354.5" y="-497.5" font-family="monospace" font-size="10.00" fill="#000000"> (4, 8192)</text>
</g>
<!-- 140458852494832&#45;&gt;140459055416896 -->
<g id="edge10" class="edge">
<title>140458852494832&#45;&gt;140459055416896</title>
<path fill="none" stroke="#000000" d="M354.5,-561.8966C354.5,-546.5781 354.5,-531.3867 354.5,-520.6367"/>
</g>
<!-- 140459055569664 -->
<g id="node13" class="node">
<title>140459055569664</title>
<polygon fill="#ffa500" stroke="#000000" points="506,-520.5 411,-520.5 411,-490.5 506,-490.5 506,-520.5"/>
<text text-anchor="middle" x="458.5" y="-508.5" font-family="monospace" font-size="10.00" fill="#000000">mat2</text>
<text text-anchor="middle" x="458.5" y="-497.5" font-family="monospace" font-size="10.00" fill="#000000"> (8192, 8192)</text>
</g>
<!-- 140458852494832&#45;&gt;140459055569664 -->
<g id="edge11" class="edge">
<title>140458852494832&#45;&gt;140459055569664</title>
<path fill="none" stroke="#000000" d="M407.7187,-561.8966C421.5119,-546.5781 435.1908,-531.3867 444.8704,-520.6367"/>
</g>
<!-- 140458852494928 -->
<g id="node14" class="node">
<title>140458852494928</title>
<polygon fill="#d3d3d3" stroke="#000000" points="297,-751.5 196,-751.5 196,-732.5 297,-732.5 297,-751.5"/>
<text text-anchor="middle" x="246.5" y="-739.5" font-family="monospace" font-size="10.00" fill="#000000">AccumulateGrad</text>
</g>
<!-- 140458852494928&#45;&gt;140458852494832 -->
<g id="edge12" class="edge">
<title>140458852494928&#45;&gt;140458852494832</title>
<path fill="none" stroke="#000000" d="M255.3381,-732.0981C264.4187,-721.9244 279.3958,-705.1445 294.9921,-687.6709"/>
<polygon fill="#000000" stroke="#000000" points="297.651,-689.948 301.6988,-680.1569 292.4287,-685.2868 297.651,-689.948"/>
</g>
<!-- 140459054853568 -->
<g id="node15" class="node">
<title>140459054853568</title>
<polygon fill="#add8e6" stroke="#000000" points="286,-878 197,-878 197,-848 286,-848 286,-878"/>
<text text-anchor="middle" x="241.5" y="-866" font-family="monospace" font-size="10.00" fill="#000000">fc.2.fc.bias</text>
<text text-anchor="middle" x="241.5" y="-855" font-family="monospace" font-size="10.00" fill="#000000"> (8192)</text>
</g>
<!-- 140459054853568&#45;&gt;140458852494928 -->
<g id="edge13" class="edge">
<title>140459054853568&#45;&gt;140458852494928</title>
<path fill="none" stroke="#000000" d="M242.1333,-847.6753C243.0361,-825.8257 244.6937,-785.7124 245.6865,-761.6873"/>
<polygon fill="#000000" stroke="#000000" points="249.1865,-761.7556 246.1025,-751.6196 242.1925,-761.4665 249.1865,-761.7556"/>
</g>
<!-- 140458852494880 -->
<g id="node16" class="node">
<title>140458852494880</title>
<polygon fill="#d3d3d3" stroke="#000000" points="865,-768 668,-768 668,-716 865,-716 865,-768"/>
<text text-anchor="middle" x="766.5" y="-756" font-family="monospace" font-size="10.00" fill="#000000">LeakyReluBackward1</text>
<text text-anchor="middle" x="766.5" y="-745" font-family="monospace" font-size="10.00" fill="#000000">&#45;&#45;&#45;&#45;&#45;&#45;&#45;&#45;&#45;&#45;&#45;&#45;&#45;&#45;&#45;&#45;&#45;&#45;&#45;&#45;&#45;&#45;&#45;&#45;&#45;&#45;&#45;&#45;&#45;&#45;</text>
<text text-anchor="middle" x="766.5" y="-734" font-family="monospace" font-size="10.00" fill="#000000">negative_slope: &#160;&#160;&#160;&#160;&#160;&#160;&#160;&#160;&#160;&#160;&#160;0.2</text>
<text text-anchor="middle" x="766.5" y="-723" font-family="monospace" font-size="10.00" fill="#000000">result &#160;&#160;&#160;&#160;&#160;&#160;&#160;: [saved tensor]</text>
</g>
<!-- 140458852494880&#45;&gt;140458852494832 -->
<g id="edge14" class="edge">
<title>140458852494880&#45;&gt;140458852494832</title>
<path fill="none" stroke="#000000" d="M677.8626,-715.9682C613.056,-696.9351 524.9943,-671.0723 457.1331,-651.1422"/>
<polygon fill="#000000" stroke="#000000" points="457.8536,-647.7061 447.2725,-648.2463 455.881,-654.4224 457.8536,-647.7061"/>
</g>
<!-- 140459055568384 -->
<g id="node17" class="node">
<title>140459055568384</title>
<polygon fill="#ffa500" stroke="#000000" points="805,-636 728,-636 728,-606 805,-606 805,-636"/>
<text text-anchor="middle" x="766.5" y="-624" font-family="monospace" font-size="10.00" fill="#000000">result</text>
<text text-anchor="middle" x="766.5" y="-613" font-family="monospace" font-size="10.00" fill="#000000"> (4, 8192)</text>
</g>
<!-- 140458852494880&#45;&gt;140459055568384 -->
<g id="edge15" class="edge">
<title>140458852494880&#45;&gt;140459055568384</title>
<path fill="none" stroke="#000000" d="M766.5,-715.7448C766.5,-691.4177 766.5,-656.076 766.5,-636.1468"/>
</g>
<!-- 140458852495024 -->
<g id="node18" class="node">
<title>140458852495024</title>
<polygon fill="#d3d3d3" stroke="#000000" points="755,-922 570,-922 570,-804 755,-804 755,-922"/>
<text text-anchor="middle" x="662.5" y="-910" font-family="monospace" font-size="10.00" fill="#000000">AddmmBackward</text>
<text text-anchor="middle" x="662.5" y="-899" font-family="monospace" font-size="10.00" fill="#000000">&#45;&#45;&#45;&#45;&#45;&#45;&#45;&#45;&#45;&#45;&#45;&#45;&#45;&#45;&#45;&#45;&#45;&#45;&#45;&#45;&#45;&#45;&#45;&#45;&#45;&#45;&#45;&#45;</text>
<text text-anchor="middle" x="662.5" y="-888" font-family="monospace" font-size="10.00" fill="#000000">alpha &#160;&#160;&#160;&#160;&#160;&#160;: &#160;&#160;&#160;&#160;&#160;&#160;&#160;&#160;&#160;&#160;&#160;&#160;&#160;1</text>
<text text-anchor="middle" x="662.5" y="-877" font-family="monospace" font-size="10.00" fill="#000000">beta &#160;&#160;&#160;&#160;&#160;&#160;&#160;: &#160;&#160;&#160;&#160;&#160;&#160;&#160;&#160;&#160;&#160;&#160;&#160;&#160;1</text>
<text text-anchor="middle" x="662.5" y="-866" font-family="monospace" font-size="10.00" fill="#000000">mat1 &#160;&#160;&#160;&#160;&#160;&#160;&#160;: [saved tensor]</text>
<text text-anchor="middle" x="662.5" y="-855" font-family="monospace" font-size="10.00" fill="#000000">mat1_sizes &#160;: &#160;&#160;&#160;&#160;&#160;(4, 8192)</text>
<text text-anchor="middle" x="662.5" y="-844" font-family="monospace" font-size="10.00" fill="#000000">mat1_strides: &#160;&#160;&#160;&#160;&#160;(8192, 1)</text>
<text text-anchor="middle" x="662.5" y="-833" font-family="monospace" font-size="10.00" fill="#000000">mat2 &#160;&#160;&#160;&#160;&#160;&#160;&#160;: [saved tensor]</text>
<text text-anchor="middle" x="662.5" y="-822" font-family="monospace" font-size="10.00" fill="#000000">mat2_sizes &#160;: &#160;&#160;(8192, 8192)</text>
<text text-anchor="middle" x="662.5" y="-811" font-family="monospace" font-size="10.00" fill="#000000">mat2_strides: &#160;&#160;&#160;&#160;&#160;(1, 8192)</text>
</g>
<!-- 140458852495024&#45;&gt;140458852494880 -->
<g id="edge16" class="edge">
<title>140458852495024&#45;&gt;140458852494880</title>
<path fill="none" stroke="#000000" d="M713.2813,-803.9179C721.5716,-794.2725 729.9031,-784.5791 737.4325,-775.8189"/>
<polygon fill="#000000" stroke="#000000" points="740.2336,-777.9295 744.0976,-768.0644 734.925,-773.3667 740.2336,-777.9295"/>
</g>
<!-- 140459055569536 -->
<g id="node19" class="node">
<title>140459055569536</title>
<polygon fill="#ffa500" stroke="#000000" points="650,-757 573,-757 573,-727 650,-727 650,-757"/>
<text text-anchor="middle" x="611.5" y="-745" font-family="monospace" font-size="10.00" fill="#000000">mat1</text>
<text text-anchor="middle" x="611.5" y="-734" font-family="monospace" font-size="10.00" fill="#000000"> (4, 8192)</text>
</g>
<!-- 140458852495024&#45;&gt;140459055569536 -->
<g id="edge17" class="edge">
<title>140458852495024&#45;&gt;140459055569536</title>
<path fill="none" stroke="#000000" d="M637.5976,-803.9179C630.3155,-786.6406 622.9683,-769.209 617.9333,-757.2634"/>
</g>
<!-- 140459055570048 -->
<g id="node20" class="node">
<title>140459055570048</title>
<polygon fill="#ffa500" stroke="#000000" points="555,-757 460,-757 460,-727 555,-727 555,-757"/>
<text text-anchor="middle" x="507.5" y="-745" font-family="monospace" font-size="10.00" fill="#000000">mat2</text>
<text text-anchor="middle" x="507.5" y="-734" font-family="monospace" font-size="10.00" fill="#000000"> (8192, 8192)</text>
</g>
<!-- 140458852495024&#45;&gt;140459055570048 -->
<g id="edge18" class="edge">
<title>140458852495024&#45;&gt;140459055570048</title>
<path fill="none" stroke="#000000" d="M586.8163,-803.9179C564.5305,-786.5206 542.0444,-768.9669 526.7345,-757.0154"/>
</g>
<!-- 140458852495216 -->
<g id="node21" class="node">
<title>140458852495216</title>
<polygon fill="#d3d3d3" stroke="#000000" points="825,-993.5 724,-993.5 724,-974.5 825,-974.5 825,-993.5"/>
<text text-anchor="middle" x="774.5" y="-981.5" font-family="monospace" font-size="10.00" fill="#000000">AccumulateGrad</text>
</g>
<!-- 140458852495216&#45;&gt;140458852495024 -->
<g id="edge19" class="edge">
<title>140458852495216&#45;&gt;140458852495024</title>
<path fill="none" stroke="#000000" d="M765.3346,-974.0981C755.9176,-963.9244 740.3859,-947.1445 724.2119,-929.6709"/>
<polygon fill="#000000" stroke="#000000" points="726.6183,-927.1181 717.2568,-922.1569 721.4811,-931.8732 726.6183,-927.1181"/>
</g>
<!-- 140459054853888 -->
<g id="node22" class="node">
<title>140459054853888</title>
<polygon fill="#add8e6" stroke="#000000" points="829,-1120 728,-1120 728,-1090 829,-1090 829,-1120"/>
<text text-anchor="middle" x="778.5" y="-1108" font-family="monospace" font-size="10.00" fill="#000000">fc.1.fc.0.bias</text>
<text text-anchor="middle" x="778.5" y="-1097" font-family="monospace" font-size="10.00" fill="#000000"> (8192)</text>
</g>
<!-- 140459054853888&#45;&gt;140458852495216 -->
<g id="edge20" class="edge">
<title>140459054853888&#45;&gt;140458852495216</title>
<path fill="none" stroke="#000000" d="M777.9934,-1089.6753C777.2711,-1067.8257 775.945,-1027.7124 775.1508,-1003.6873"/>
<polygon fill="#000000" stroke="#000000" points="778.6466,-1003.4984 774.818,-993.6196 771.6504,-1003.7298 778.6466,-1003.4984"/>
</g>
<!-- 140458852495168 -->
<g id="node23" class="node">
<title>140458852495168</title>
<polygon fill="#d3d3d3" stroke="#000000" points="610,-1010 413,-1010 413,-958 610,-958 610,-1010"/>
<text text-anchor="middle" x="511.5" y="-998" font-family="monospace" font-size="10.00" fill="#000000">LeakyReluBackward1</text>
<text text-anchor="middle" x="511.5" y="-987" font-family="monospace" font-size="10.00" fill="#000000">&#45;&#45;&#45;&#45;&#45;&#45;&#45;&#45;&#45;&#45;&#45;&#45;&#45;&#45;&#45;&#45;&#45;&#45;&#45;&#45;&#45;&#45;&#45;&#45;&#45;&#45;&#45;&#45;&#45;&#45;</text>
<text text-anchor="middle" x="511.5" y="-976" font-family="monospace" font-size="10.00" fill="#000000">negative_slope: &#160;&#160;&#160;&#160;&#160;&#160;&#160;&#160;&#160;&#160;&#160;0.2</text>
<text text-anchor="middle" x="511.5" y="-965" font-family="monospace" font-size="10.00" fill="#000000">result &#160;&#160;&#160;&#160;&#160;&#160;&#160;: [saved tensor]</text>
</g>
<!-- 140458852495168&#45;&gt;140458852495024 -->
<g id="edge21" class="edge">
<title>140458852495168&#45;&gt;140458852495024</title>
<path fill="none" stroke="#000000" d="M544.2648,-957.7448C555.1112,-949.0533 567.7122,-938.9558 580.5637,-928.6576"/>
<polygon fill="#000000" stroke="#000000" points="582.9695,-931.2149 588.5845,-922.2303 578.5922,-925.7523 582.9695,-931.2149"/>
</g>
<!-- 140459055567296 -->
<g id="node24" class="node">
<title>140459055567296</title>
<polygon fill="#ffa500" stroke="#000000" points="550,-878 473,-878 473,-848 550,-848 550,-878"/>
<text text-anchor="middle" x="511.5" y="-866" font-family="monospace" font-size="10.00" fill="#000000">result</text>
<text text-anchor="middle" x="511.5" y="-855" font-family="monospace" font-size="10.00" fill="#000000"> (4, 8192)</text>
</g>
<!-- 140458852495168&#45;&gt;140459055567296 -->
<g id="edge22" class="edge">
<title>140458852495168&#45;&gt;140459055567296</title>
<path fill="none" stroke="#000000" d="M511.5,-957.7448C511.5,-933.4177 511.5,-898.076 511.5,-878.1468"/>
</g>
<!-- 140458852495312 -->
<g id="node25" class="node">
<title>140458852495312</title>
<polygon fill="#d3d3d3" stroke="#000000" points="502,-1164 317,-1164 317,-1046 502,-1046 502,-1164"/>
<text text-anchor="middle" x="409.5" y="-1152" font-family="monospace" font-size="10.00" fill="#000000">AddmmBackward</text>
<text text-anchor="middle" x="409.5" y="-1141" font-family="monospace" font-size="10.00" fill="#000000">&#45;&#45;&#45;&#45;&#45;&#45;&#45;&#45;&#45;&#45;&#45;&#45;&#45;&#45;&#45;&#45;&#45;&#45;&#45;&#45;&#45;&#45;&#45;&#45;&#45;&#45;&#45;&#45;</text>
<text text-anchor="middle" x="409.5" y="-1130" font-family="monospace" font-size="10.00" fill="#000000">alpha &#160;&#160;&#160;&#160;&#160;&#160;: &#160;&#160;&#160;&#160;&#160;&#160;&#160;&#160;&#160;&#160;&#160;&#160;&#160;1</text>
<text text-anchor="middle" x="409.5" y="-1119" font-family="monospace" font-size="10.00" fill="#000000">beta &#160;&#160;&#160;&#160;&#160;&#160;&#160;: &#160;&#160;&#160;&#160;&#160;&#160;&#160;&#160;&#160;&#160;&#160;&#160;&#160;1</text>
<text text-anchor="middle" x="409.5" y="-1108" font-family="monospace" font-size="10.00" fill="#000000">mat1 &#160;&#160;&#160;&#160;&#160;&#160;&#160;: [saved tensor]</text>
<text text-anchor="middle" x="409.5" y="-1097" font-family="monospace" font-size="10.00" fill="#000000">mat1_sizes &#160;: &#160;&#160;&#160;&#160;(4, 16384)</text>
<text text-anchor="middle" x="409.5" y="-1086" font-family="monospace" font-size="10.00" fill="#000000">mat1_strides: &#160;&#160;&#160;&#160;&#160;&#160;&#160;&#160;&#160;&#160;&#160;&#160;()</text>
<text text-anchor="middle" x="409.5" y="-1075" font-family="monospace" font-size="10.00" fill="#000000">mat2 &#160;&#160;&#160;&#160;&#160;&#160;&#160;: &#160;&#160;&#160;&#160;&#160;&#160;&#160;&#160;&#160;&#160;None</text>
<text text-anchor="middle" x="409.5" y="-1064" font-family="monospace" font-size="10.00" fill="#000000">mat2_sizes &#160;: &#160;(16384, 8192)</text>
<text text-anchor="middle" x="409.5" y="-1053" font-family="monospace" font-size="10.00" fill="#000000">mat2_strides: &#160;&#160;&#160;&#160;(1, 16384)</text>
</g>
<!-- 140458852495312&#45;&gt;140458852495168 -->
<g id="edge23" class="edge">
<title>140458852495312&#45;&gt;140458852495168</title>
<path fill="none" stroke="#000000" d="M459.3048,-1045.9179C467.4356,-1036.2725 475.6069,-1026.5791 482.9915,-1017.8189"/>
<polygon fill="#000000" stroke="#000000" points="485.7591,-1019.9661 489.5284,-1010.0644 480.407,-1015.4544 485.7591,-1019.9661"/>
</g>
<!-- 140459055570112 -->
<g id="node26" class="node">
<title>140459055570112</title>
<polygon fill="#ffa500" stroke="#000000" points="395,-999 312,-999 312,-969 395,-969 395,-999"/>
<text text-anchor="middle" x="353.5" y="-987" font-family="monospace" font-size="10.00" fill="#000000">mat1</text>
<text text-anchor="middle" x="353.5" y="-976" font-family="monospace" font-size="10.00" fill="#000000"> (4, 16384)</text>
</g>
<!-- 140458852495312&#45;&gt;140459055570112 -->
<g id="edge24" class="edge">
<title>140458852495312&#45;&gt;140459055570112</title>
<path fill="none" stroke="#000000" d="M382.1562,-1045.9179C374.1601,-1028.6406 366.0926,-1011.209 360.5641,-999.2634"/>
</g>
<!-- 140458852610256 -->
<g id="node27" class="node">
<title>140458852610256</title>
<polygon fill="#d3d3d3" stroke="#000000" points="534,-1224.5 433,-1224.5 433,-1205.5 534,-1205.5 534,-1224.5"/>
<text text-anchor="middle" x="483.5" y="-1212.5" font-family="monospace" font-size="10.00" fill="#000000">AccumulateGrad</text>
</g>
<!-- 140458852610256&#45;&gt;140458852495312 -->
<g id="edge25" class="edge">
<title>140458852610256&#45;&gt;140458852495312</title>
<path fill="none" stroke="#000000" d="M476.933,-1205.2382C471.623,-1197.345 463.6299,-1185.4634 454.9835,-1172.6107"/>
<polygon fill="#000000" stroke="#000000" points="457.7148,-1170.4001 449.2289,-1164.0565 451.9067,-1174.3074 457.7148,-1170.4001"/>
</g>
<!-- 140459054440704 -->
<g id="node28" class="node">
<title>140459054440704</title>
<polygon fill="#add8e6" stroke="#000000" points="538,-1296 437,-1296 437,-1266 538,-1266 538,-1296"/>
<text text-anchor="middle" x="487.5" y="-1284" font-family="monospace" font-size="10.00" fill="#000000">fc.0.fc.0.bias</text>
<text text-anchor="middle" x="487.5" y="-1273" font-family="monospace" font-size="10.00" fill="#000000"> (8192)</text>
</g>
<!-- 140459054440704&#45;&gt;140458852610256 -->
<g id="edge26" class="edge">
<title>140459054440704&#45;&gt;140458852610256</title>
<path fill="none" stroke="#000000" d="M486.5723,-1265.6924C486.0156,-1256.5067 485.3015,-1244.7245 484.7019,-1234.8312"/>
<polygon fill="#000000" stroke="#000000" points="488.1867,-1234.473 484.0881,-1224.7031 481.1995,-1234.8965 488.1867,-1234.473"/>
</g>
<!-- 140458852610208 -->
<g id="node29" class="node">
<title>140458852610208</title>
<polygon fill="#d3d3d3" stroke="#000000" points="411,-1224.5 340,-1224.5 340,-1205.5 411,-1205.5 411,-1224.5"/>
<text text-anchor="middle" x="375.5" y="-1212.5" font-family="monospace" font-size="10.00" fill="#000000">TBackward</text>
</g>
<!-- 140458852610208&#45;&gt;140458852495312 -->
<g id="edge27" class="edge">
<title>140458852610208&#45;&gt;140458852495312</title>
<path fill="none" stroke="#000000" d="M378.5173,-1205.2382C380.8873,-1197.5705 384.4206,-1186.1391 388.2624,-1173.7099"/>
<polygon fill="#000000" stroke="#000000" points="391.6369,-1174.6441 391.2462,-1164.0565 384.9491,-1172.5769 391.6369,-1174.6441"/>
</g>
<!-- 140458852610304 -->
<g id="node30" class="node">
<title>140458852610304</title>
<polygon fill="#d3d3d3" stroke="#000000" points="419,-1290.5 318,-1290.5 318,-1271.5 419,-1271.5 419,-1290.5"/>
<text text-anchor="middle" x="368.5" y="-1278.5" font-family="monospace" font-size="10.00" fill="#000000">AccumulateGrad</text>
</g>
<!-- 140458852610304&#45;&gt;140458852610208 -->
<g id="edge28" class="edge">
<title>140458852610304&#45;&gt;140458852610208</title>
<path fill="none" stroke="#000000" d="M369.5329,-1271.2615C370.5462,-1261.7077 372.1207,-1246.8615 373.3981,-1234.8183"/>
<polygon fill="#000000" stroke="#000000" points="376.8886,-1235.0919 374.4629,-1224.7785 369.9276,-1234.3535 376.8886,-1235.0919"/>
</g>
<!-- 140459133161920 -->
<g id="node31" class="node">
<title>140459133161920</title>
<polygon fill="#add8e6" stroke="#000000" points="425,-1362 312,-1362 312,-1332 425,-1332 425,-1362"/>
<text text-anchor="middle" x="368.5" y="-1350" font-family="monospace" font-size="10.00" fill="#000000">fc.0.fc.0.weight</text>
<text text-anchor="middle" x="368.5" y="-1339" font-family="monospace" font-size="10.00" fill="#000000"> (8192, 16384)</text>
</g>
<!-- 140459133161920&#45;&gt;140458852610304 -->
<g id="edge29" class="edge">
<title>140459133161920&#45;&gt;140458852610304</title>
<path fill="none" stroke="#000000" d="M368.5,-1331.6924C368.5,-1322.5067 368.5,-1310.7245 368.5,-1300.8312"/>
<polygon fill="#000000" stroke="#000000" points="372.0001,-1300.703 368.5,-1290.7031 365.0001,-1300.7031 372.0001,-1300.703"/>
</g>
<!-- 140458852495120 -->
<g id="node32" class="node">
<title>140458852495120</title>
<polygon fill="#d3d3d3" stroke="#000000" points="699,-993.5 628,-993.5 628,-974.5 699,-974.5 699,-993.5"/>
<text text-anchor="middle" x="663.5" y="-981.5" font-family="monospace" font-size="10.00" fill="#000000">TBackward</text>
</g>
<!-- 140458852495120&#45;&gt;140458852495024 -->
<g id="edge30" class="edge">
<title>140458852495120&#45;&gt;140458852495024</title>
<path fill="none" stroke="#000000" d="M663.4182,-974.0981C663.3386,-964.4694 663.2101,-948.9234 663.0742,-932.4722"/>
<polygon fill="#000000" stroke="#000000" points="666.5715,-932.1276 662.9889,-922.1569 659.5718,-932.1855 666.5715,-932.1276"/>
</g>
<!-- 140458852610352 -->
<g id="node33" class="node">
<title>140458852610352</title>
<polygon fill="#d3d3d3" stroke="#000000" points="710,-1114.5 609,-1114.5 609,-1095.5 710,-1095.5 710,-1114.5"/>
<text text-anchor="middle" x="659.5" y="-1102.5" font-family="monospace" font-size="10.00" fill="#000000">AccumulateGrad</text>
</g>
<!-- 140458852610352&#45;&gt;140458852495120 -->
<g id="edge31" class="edge">
<title>140458852610352&#45;&gt;140458852495120</title>
<path fill="none" stroke="#000000" d="M659.8273,-1095.0981C660.484,-1075.2349 661.9731,-1030.1896 662.84,-1003.9642"/>
<polygon fill="#000000" stroke="#000000" points="666.3469,-1003.8108 663.1793,-993.7006 659.3507,-1003.5794 666.3469,-1003.8108"/>
</g>
<!-- 140459054850368 -->
<g id="node34" class="node">
<title>140459054850368</title>
<polygon fill="#add8e6" stroke="#000000" points="716,-1230 603,-1230 603,-1200 716,-1200 716,-1230"/>
<text text-anchor="middle" x="659.5" y="-1218" font-family="monospace" font-size="10.00" fill="#000000">fc.1.fc.0.weight</text>
<text text-anchor="middle" x="659.5" y="-1207" font-family="monospace" font-size="10.00" fill="#000000"> (8192, 8192)</text>
</g>
<!-- 140459054850368&#45;&gt;140458852610352 -->
<g id="edge32" class="edge">
<title>140459054850368&#45;&gt;140458852610352</title>
<path fill="none" stroke="#000000" d="M659.5,-1199.705C659.5,-1180.1894 659.5,-1146.3931 659.5,-1124.8934"/>
<polygon fill="#000000" stroke="#000000" points="663.0001,-1124.6473 659.5,-1114.6473 656.0001,-1124.6474 663.0001,-1124.6473"/>
</g>
<!-- 140458852494352 -->
<g id="node35" class="node">
<title>140458852494352</title>
<polygon fill="#d3d3d3" stroke="#000000" points="390,-751.5 319,-751.5 319,-732.5 390,-732.5 390,-751.5"/>
<text text-anchor="middle" x="354.5" y="-739.5" font-family="monospace" font-size="10.00" fill="#000000">TBackward</text>
</g>
<!-- 140458852494352&#45;&gt;140458852494832 -->
<g id="edge33" class="edge">
<title>140458852494352&#45;&gt;140458852494832</title>
<path fill="none" stroke="#000000" d="M354.5,-732.0981C354.5,-722.4694 354.5,-706.9234 354.5,-690.4722"/>
<polygon fill="#000000" stroke="#000000" points="358.0001,-690.1569 354.5,-680.1569 351.0001,-690.1569 358.0001,-690.1569"/>
</g>
<!-- 140458852495264 -->
<g id="node36" class="node">
<title>140458852495264</title>
<polygon fill="#d3d3d3" stroke="#000000" points="405,-872.5 304,-872.5 304,-853.5 405,-853.5 405,-872.5"/>
<text text-anchor="middle" x="354.5" y="-860.5" font-family="monospace" font-size="10.00" fill="#000000">AccumulateGrad</text>
</g>
<!-- 140458852495264&#45;&gt;140458852494352 -->
<g id="edge34" class="edge">
<title>140458852495264&#45;&gt;140458852494352</title>
<path fill="none" stroke="#000000" d="M354.5,-853.0981C354.5,-833.2349 354.5,-788.1896 354.5,-761.9642"/>
<polygon fill="#000000" stroke="#000000" points="358.0001,-761.7005 354.5,-751.7006 351.0001,-761.7006 358.0001,-761.7005"/>
</g>
<!-- 140459054853056 -->
<g id="node37" class="node">
<title>140459054853056</title>
<polygon fill="#add8e6" stroke="#000000" points="294,-999 193,-999 193,-969 294,-969 294,-999"/>
<text text-anchor="middle" x="243.5" y="-987" font-family="monospace" font-size="10.00" fill="#000000">fc.2.fc.weight</text>
<text text-anchor="middle" x="243.5" y="-976" font-family="monospace" font-size="10.00" fill="#000000"> (8192, 8192)</text>
</g>
<!-- 140459054853056&#45;&gt;140458852495264 -->
<g id="edge35" class="edge">
<title>140459054853056&#45;&gt;140458852495264</title>
<path fill="none" stroke="#000000" d="M257.5582,-968.6753C278.3276,-946.0348 317.0862,-903.7844 338.7737,-880.1431"/>
<polygon fill="#000000" stroke="#000000" points="341.4946,-882.3546 345.6754,-872.6196 336.3362,-877.6226 341.4946,-882.3546"/>
</g>
</g>
</svg>
